<svg id="Layer_1" enable-background="new 0 0 512.026 512.026" height="512" viewBox="0 0 512.026 512.026" width="512" xmlns="http://www.w3.org/2000/svg" xmlns:xlink="http://www.w3.org/1999/xlink"><linearGradient id="SVGID_1_" gradientUnits="userSpaceOnUse" x1="0" x2="512.026" y1="256.013" y2="256.013"><stop offset="0" stop-color="#80d8ff"/><stop offset="1" stop-color="#ea80fc"/></linearGradient><path d="m492.026 240.013c5.305 0 10.392-2.107 14.143-5.858 3.75-3.75 5.857-8.838 5.857-14.143l-.005-120c0-11.045-8.955-19.999-20-19.999h-111.986c-41.315 0-80.051 20.329-103.681 54.395l-49.328 67.312v-42.706c0-11.046-8.954-20-20-20h-90c-11.046 0-20 8.954-20 20v193h-77.026c-5.305 0-10.393 2.108-14.144 5.859s-5.857 8.84-5.856 14.145l.026 120c.002 11.044 8.956 19.996 20 19.996h111.26c48.164 0 93.842-23.248 122.187-62.187l152.732-209.813h85.821zm-305-61v77.289l-50 68.229v-145.518zm192.83 29.229-158.722 218.043c-20.843 28.633-54.432 45.728-89.848 45.728h-91.265l-.017-80h87.021c6.373 0 12.365-3.038 16.132-8.178l165.619-226c.112-.152.221-.306.328-.461 16.388-23.743 42.241-37.361 70.93-37.361h91.987l.003 80h-75.999c-6.395 0-12.405 3.059-16.169 8.229zm57.956 102.8c-3.776-5.054-9.714-8.029-16.021-8.029-.01 0-.022 0-.032 0-6.319.01-12.262 3.006-16.028 8.081l-69.765 94c-4.504 6.068-5.203 14.158-1.806 20.909s10.309 11.011 17.866 11.011h50v55c0 11.046 8.954 20 20 20s20-8.954 20-20v-55h50c7.569 0 14.489-4.273 17.88-11.04s2.672-14.868-1.859-20.932zm-46.036 85.971 30.068-40.514 30.271 40.514zm-229.75-277c33.084 0 60-26.916 60-60s-26.916-60-60-60-60 26.916-60 60 26.916 60 60 60zm0-80c11.028 0 20 8.972 20 20s-8.972 20-20 20-20-8.972-20-20 8.972-20 20-20z" fill="url(#SVGID_1_)"/></svg>