<svg viewBox="0 0 512 512" xmlns="http://www.w3.org/2000/svg" xmlns:xlink="http://www.w3.org/1999/xlink"><linearGradient id="a" gradientTransform="matrix(1 0 0 -1 0 -15338)" gradientUnits="userSpaceOnUse" x1="0" x2="512" y1="-15594" y2="-15594"><stop offset="0" stop-color="#31d8ff"/><stop offset="1" stop-color="#ff80ff"/></linearGradient><path d="m512 256c0 141.386719-114.613281 256-256 256s-256-114.613281-256-256 114.613281-256 256-256 256 114.613281 256 256zm0 0" fill="url(#a)"/><g fill="#fff"><path d="m375.359375 76.8125c-2.839844-3.667969-7.21875-5.8125-11.855469-5.8125h-178.453125c-8.285156 0-15 6.714844-15 15s6.714844 15 15 15h170.9375c61.753907 85.8125 61.753907 224.1875 0 310h-170.9375c-8.285156 0-15 6.714844-15 15s6.714844 15 15 15h178.453125c4.636719 0 9.015625-2.144531 11.855469-5.8125 36.527344-47.136719 56.640625-110.773438 56.640625-179.1875s-20.113281-132.050781-56.640625-179.1875zm0 0"/><path d="m226.761719 301.125c-5.859375 5.859375-5.859375 15.355469 0 21.214844 2.929687 2.929687 6.769531 4.394531 10.605469 4.394531 3.839843 0 7.679687-1.464844 10.605468-4.394531l55.734375-55.734375c5.769531-5.765625 5.769531-15.445313 0-21.210938l-55.734375-55.734375c-5.855468-5.855468-15.355468-5.855468-21.210937 0-5.859375 5.859375-5.859375 15.355469 0 21.214844l30.125 30.125h-179.886719c-8.285156 0-15 6.714844-15 15s6.714844 15 15 15h179.886719zm0 0"/></g></svg>